<svg viewBox="-683 -312.5 1366 625" width="1366" height="625" style="background-color: rgb(255, 255, 255);" xmlns="http://www.w3.org/2000/svg"><path d="M-107.23503476438727,-10.288985373490647L-152.89695693169065,-25.36325294028238M-152.89695693169068,-122.69380622062499L-152.89695693169065,-25.36325294028238M-152.89695693169065,-25.36325294028238L-226.78549126739566,-2.649905627446977M-119.39808765546054,-14.619987946209633L-165.0600098227639,-29.694255513001355M-165.0600098227639,-49.47818276892483L-165.0600098227639,-29.694255513001355M-165.0600098227639,-29.694255513001355L-180.07898730801392,-25.07741942370713M-119.39808765546054,-34.403915202133106L-165.0600098227639,-49.47818276892483M-165.0600098227639,-49.47818276892483L-180.07898730801392,-44.86134667963061" style="fill:none;stroke:rgb(0,0,0);stroke-width:1;stroke-linecap:round"></path><path d="M-165.06000982276393,-49.478182768924846L-165.06000982276393,-29.694255513001362L-180.07898730801392,-44.86134667963061zM-165.06000982276393,-29.694255513001362L-180.07898730801392,-25.07741942370713L-180.07898730801392,-44.86134667963061z" style="fill:rgb(153,221,255); fill-opacity: 0.4"></path><path d="M-107.23503476438728,-10.288985373490656L-152.89695693169068,-25.36325294028238L-152.89695693169068,-122.69380622062499z" style="fill:rgb(248,236,236); fill-opacity: 0.4"></path><path d="M-180.07898730801392,-44.86134667963061L-180.07898730801392,-25.07741942370713M-180.07898730801392,-25.07741942370713L-134.41706514071052,-10.003151856915403" style="fill:none;stroke:rgb(0,0,0);stroke-width:1;stroke-linecap:round"></path><path d="M-119.39808765546053,-14.619987946209642L-165.06000982276393,-29.694255513001362L-165.06000982276393,-49.478182768924846z" style="fill:rgb(153,221,255); fill-opacity: 0.4"></path><path d="M-107.23503476438728,-107.61953865383327L-152.89695693169068,-122.69380622062499M-152.89695693169068,-122.69380622062499L-226.78549126739568,-99.9804589077896" style="fill:none;stroke:rgb(0,0,0);stroke-width:1;stroke-linecap:round"></path><path d="M-180.07898730801392,-25.07741942370713L-165.06000982276393,-29.694255513001362L-119.39808765546053,-14.619987946209642z" style="fill:rgb(153,221,255); fill-opacity: 0.4"></path><path d="M-180.07898730801392,-44.86134667963061L-134.41706514071052,-29.787079112838878" style="fill:none;stroke:rgb(0,0,0);stroke-width:1;stroke-linecap:round"></path><path d="M-226.78549126739568,-2.649905627446977L-152.89695693169068,-25.36325294028238L-107.23503476438728,-10.288985373490656zM-152.89695693169068,-122.69380622062499L-152.89695693169068,-25.36325294028238L-226.78549126739568,-99.9804589077896z" style="fill:rgb(248,236,236); fill-opacity: 0.4"></path><path d="M-180.07898730801392,-44.86134667963061L-134.41706514071052,-29.78707911283888L-165.06000982276393,-49.478182768924846z" style="fill:rgb(153,221,255); fill-opacity: 0.4"></path><path d="M-107.23503476438728,-107.61953865383327L-107.23503476438727,-10.288985373490647M-107.23503476438727,-10.288985373490647L-181.12356910009228,12.424361939344754" style="fill:none;stroke:rgb(0,0,0);stroke-width:1;stroke-linecap:round"></path><path d="M-180.07898730801392,-44.86134667963061L-180.07898730801392,-25.07741942370713L-134.41706514071052,-29.78707911283888zM-119.39808765546053,-34.40391520213312L-119.39808765546053,-14.619987946209642L-165.06000982276393,-49.478182768924846z" style="fill:rgb(153,221,255); fill-opacity: 0.4"></path><path d="M-107.23503476438728,-107.61953865383327L-107.23503476438728,-10.288985373490656L-152.89695693169068,-122.69380622062499z" style="fill:rgb(248,236,236); fill-opacity: 0.4"></path><path d="M-134.41706514071052,-10.003151856915409L-180.07898730801392,-25.07741942370713L-119.39808765546053,-14.619987946209642zM-134.41706514071052,-29.78707911283888L-119.39808765546053,-34.40391520213312L-165.06000982276393,-49.478182768924846z" style="fill:rgb(153,221,255); fill-opacity: 0.4"></path><path d="M-152.89695693169068,-25.36325294028238L-226.78549126739568,-2.649905627446977L-226.78549126739568,-99.9804589077896z" style="fill:rgb(248,236,236); fill-opacity: 0.4"></path><path d="M-119.39809012633663,-34.403914724355296L-119.3980901263366,-14.619987468431825M-119.3980901263366,-14.619987468431825L-134.41706696053146,-10.003151579272048M-119.3980901263366,-14.619987468431825L-106.76762427864682,-22.635654416537893M-119.39808765546054,-34.403915202133106L-119.39808765546054,-14.619987946209633M-119.39808765546054,-14.619987946209633L-134.41706514071052,-10.003151856915403" style="fill:none;stroke:rgb(0,0,0);stroke-width:1;stroke-linecap:round"></path><path d="M-180.07898730801392,-25.07741942370713L-134.41706514071052,-10.003151856915409L-134.41706514071052,-29.78707911283888z" style="fill:rgb(153,221,255); fill-opacity: 0.4"></path><path d="M-119.39809012633663,-34.403914724355296L-134.41706696053146,-29.78707883519552M-119.39809012633663,-34.403914724355296L-106.76762427864682,-22.635654416537893M-119.39808765546054,-34.403915202133106L-134.41706514071052,-29.787079112838878" style="fill:none;stroke:rgb(0,0,0);stroke-width:1;stroke-linecap:round"></path><path d="M-119.3980883464409,-34.40391543024491L-119.3980883464409,-14.619988174321435L-134.41706583169088,-10.0031520850272z" style="fill:rgb(198,137,215); fill-opacity: 0.4"></path><path d="M-134.41706514071052,-10.003151856915409L-119.39808765546053,-14.619987946209642L-119.39808765546053,-34.40391520213312z" style="fill:rgb(153,221,255); fill-opacity: 0.4"></path><path d="M-226.78549126739568,-99.9804589077896L-226.78549126739566,-2.649905627446977M-226.78549126739566,-2.649905627446977L-181.12356910009228,12.424361939344754" style="fill:none;stroke:rgb(0,0,0);stroke-width:1;stroke-linecap:round"></path><path d="M-119.3980883464409,-34.40391543024491L-134.41706583169088,-10.0031520850272L-134.41706583169088,-29.787079340950676z" style="fill:rgb(198,137,215); fill-opacity: 0.4"></path><path d="M-134.41706514071052,-29.78707911283888L-134.41706514071052,-10.003151856915409L-119.39808765546053,-34.40391520213312z" style="fill:rgb(153,221,255); fill-opacity: 0.4"></path><path d="M-134.41706696053146,-10.003151579272048L-134.41706696053146,-29.78707883519552M-134.41706696053146,-10.003151579272048L-106.76762427864682,-22.635654416537893M-134.41706514071052,-29.787079112838878L-134.41706514071052,-10.003151856915403" style="fill:none;stroke:rgb(0,0,0);stroke-width:1;stroke-linecap:round"></path><path d="M-181.12356910009223,12.424361939344745L-226.78549126739568,-2.649905627446977L-107.23503476438728,-10.288985373490656z" style="fill:rgb(248,236,236); fill-opacity: 0.4"></path><path d="M-119.3980883464409,-14.619988174321435L-119.3980883464409,-34.40391543024491L-106.7676230446489,-22.635655072237505z" style="fill:rgb(198,137,215); fill-opacity: 0.4"></path><path d="M-107.23503476438728,-107.61953865383327L-181.12356910009228,-84.90619134099786" style="fill:none;stroke:rgb(0,0,0);stroke-width:1;stroke-linecap:round"></path><path d="M-181.12356910009223,12.424361939344745L-107.23503476438728,-10.288985373490656L-107.23503476438728,-107.61953865383327z" style="fill:rgb(248,236,236); fill-opacity: 0.4"></path><path d="M-134.41706583169088,-10.0031520850272L-119.3980883464409,-14.619988174321435L-106.7676230446489,-22.635655072237505z" style="fill:rgb(198,137,215); fill-opacity: 0.4"></path><path d="M-134.41706696053146,-29.78707883519552L-106.76762427864682,-22.635654416537893" style="fill:none;stroke:rgb(0,0,0);stroke-width:1;stroke-linecap:round"></path><path d="M-119.3980883464409,-34.40391543024491L-134.41706583169088,-29.787079340950676L-106.7676230446489,-22.635655072237505z" style="fill:rgb(198,137,215); fill-opacity: 0.4"></path><path d="M-181.12356910009223,-84.90619134099786L-107.23503476438728,-107.61953865383327L-152.89695693169068,-122.69380622062499z" style="fill:rgb(248,236,236); fill-opacity: 0.4"></path><path d="M-134.41706583169088,-29.787079340950676L-134.41706583169088,-10.0031520850272L-106.7676230446489,-22.635655072237505z" style="fill:rgb(198,137,215); fill-opacity: 0.4"></path><path d="M-39.37459406980455,3.0838024414259673L-94.16889664980285,-15.005317311357746M-94.16889664980285,-77.33792555170511L-94.16889664980285,-15.005317311357746M-94.16889664980285,-15.005317311357746L-141.48872489464173,-0.45919451474713235" style="fill:none;stroke:rgb(0,0,0);stroke-width:1;stroke-linecap:round"></path><path d="M-226.78549126739568,-99.9804589077896L-181.12356910009223,-84.90619134099786L-152.89695693169068,-122.69380622062499z" style="fill:rgb(248,236,236); fill-opacity: 0.4"></path><path d="M-226.78549126739568,-99.9804589077896L-181.12356910009228,-84.90619134099786M-50.30689656346929,-5.952381287223745L-105.1011991434676,-24.041501040007457M-105.1011991434676,-43.825428295930934L-105.1011991434676,-24.041501040007457M-105.1011991434676,-24.041501040007457L-120.12017662871759,-19.42466495071323" style="fill:none;stroke:rgb(0,0,0);stroke-width:1;stroke-linecap:round"></path><path d="M-226.78549126739568,-99.9804589077896L-226.78549126739568,-2.649905627446977L-181.12356910009223,-84.90619134099786zM-226.78549126739568,-2.649905627446977L-181.12356910009223,12.424361939344745L-181.12356910009223,-84.90619134099786z" style="fill:rgb(248,236,236); fill-opacity: 0.4"></path><path d="M-50.30689656346929,-25.73630854314722L-105.1011991434676,-43.825428295930934M-105.1011991434676,-43.825428295930934L-120.12017662871759,-39.20859220663671M-39.37459406980455,-59.2488057989214L-94.16889664980285,-77.33792555170511M-94.16889664980285,-77.33792555170511L-141.48872489464173,-62.79180275509451" style="fill:none;stroke:rgb(0,0,0);stroke-width:1;stroke-linecap:round"></path><path d="M-181.12356910009223,-84.90619134099786L-181.12356910009223,12.424361939344745L-107.23503476438728,-107.61953865383327z" style="fill:rgb(248,236,236); fill-opacity: 0.4"></path><path d="M-105.10119914346757,-43.825428295930934L-105.10119914346757,-24.041501040007457L-120.12017662871757,-39.20859220663671z" style="fill:rgb(153,221,255); fill-opacity: 0.4"></path><path d="M-181.12356910009228,-84.90619134099786L-181.12356910009228,12.424361939344754" style="fill:none;stroke:rgb(0,0,0);stroke-width:1;stroke-linecap:round"></path><path d="M-39.37459406980454,3.0838024414259673L-94.16889664980282,-15.005317311357746L-94.16889664980282,-77.33792555170511z" style="fill:rgb(248,236,236); fill-opacity: 0.4"></path><path d="M-105.10119914346757,-24.041501040007457L-120.12017662871757,-19.424664950713233L-120.12017662871757,-39.20859220663671z" style="fill:rgb(153,221,255); fill-opacity: 0.4"></path><path d="M-120.12017662871759,-39.20859220663671L-120.12017662871759,-19.42466495071323M-120.12017662871759,-19.42466495071323L-65.32587404871929,-1.3355451979295185" style="fill:none;stroke:rgb(0,0,0);stroke-width:1;stroke-linecap:round"></path><path d="M-94.16889664980282,-77.33792555170511L-94.16889664980282,-15.005317311357746L-141.48872489464173,-62.79180275509451zM-141.48872489464173,-0.45919451474713235L-94.16889664980282,-15.005317311357746L-39.37459406980454,3.0838024414259673z" style="fill:rgb(248,236,236); fill-opacity: 0.4"></path><path d="M-50.30689656346928,-5.952381287223745L-105.10119914346757,-24.041501040007457L-105.10119914346757,-43.825428295930934z" style="fill:rgb(153,221,255); fill-opacity: 0.4"></path><path d="M-120.12017662871759,-39.20859220663671L-65.32587404871929,-21.119472453852996" style="fill:none;stroke:rgb(0,0,0);stroke-width:1;stroke-linecap:round"></path><path d="M-94.16889664980282,-15.005317311357746L-141.48872489464173,-0.45919451474713235L-141.48872489464173,-62.79180275509451z" style="fill:rgb(248,236,236); fill-opacity: 0.4"></path><path d="M-120.12017662871757,-19.424664950713233L-105.10119914346757,-24.041501040007457L-50.30689656346928,-5.952381287223745z" style="fill:rgb(153,221,255); fill-opacity: 0.4"></path><path d="M-141.48872489464173,-62.79180275509451L-141.48872489464173,-0.45919451474713235M-141.48872489464173,-0.45919451474713235L-86.69442231464345,17.629925238036577" style="fill:none;stroke:rgb(0,0,0);stroke-width:1;stroke-linecap:round"></path><path d="M-120.12017662871757,-39.20859220663671L-65.32587404871927,-21.119472453852996L-105.10119914346757,-43.825428295930934z" style="fill:rgb(153,221,255); fill-opacity: 0.4"></path><path d="M-39.37459406980454,-59.2488057989214L-39.37459406980454,3.0838024414259673L-94.16889664980282,-77.33792555170511z" style="fill:rgb(248,236,236); fill-opacity: 0.4"></path><path d="M-120.12017662871757,-39.20859220663671L-120.12017662871757,-19.424664950713233L-65.32587404871927,-21.119472453852996z" style="fill:rgb(153,221,255); fill-opacity: 0.4"></path><path d="M-39.37459406980455,-59.2488057989214L-39.37459406980455,3.0838024414259673M-39.37459406980455,3.0838024414259673L-86.69442231464345,17.629925238036577" style="fill:none;stroke:rgb(0,0,0);stroke-width:1;stroke-linecap:round"></path><path d="M-50.30689656346928,-25.736308543147228L-50.30689656346928,-5.952381287223745L-105.10119914346757,-43.825428295930934zM-65.32587404871927,-1.3355451979295185L-120.12017662871757,-19.424664950713233L-50.30689656346928,-5.952381287223745zM-65.32587404871927,-21.119472453852996L-50.30689656346928,-25.736308543147228L-105.10119914346757,-43.825428295930934z" style="fill:rgb(153,221,255); fill-opacity: 0.4"></path><path d="M-141.48872489464173,-62.79180275509451L-86.69442231464345,-44.7026830023108" style="fill:none;stroke:rgb(0,0,0);stroke-width:1;stroke-linecap:round"></path><path d="M-86.69442231464343,17.62992523803658L-141.48872489464173,-0.45919451474713235L-39.37459406980454,3.0838024414259673z" style="fill:rgb(248,236,236); fill-opacity: 0.4"></path><path d="M-120.12017662871757,-19.424664950713233L-65.32587404871927,-1.3355451979295185L-65.32587404871927,-21.119472453852996z" style="fill:rgb(153,221,255); fill-opacity: 0.4"></path><path d="M-141.48872489464173,-62.79180275509451L-86.69442231464343,-44.7026830023108L-94.16889664980282,-77.33792555170511z" style="fill:rgb(248,236,236); fill-opacity: 0.4"></path><path d="M-50.30689656346929,-25.73630854314722L-50.30689656346929,-5.952381287223745M-50.30689656346929,-5.952381287223745L-65.32587404871929,-1.3355451979295185M-50.306894165150496,-25.73630741781414L-50.306894165150496,-5.9523801618906615M-50.306894165150496,-5.9523801618906615L-65.32587099934536,-1.3355442727308877M-50.306894165150496,-5.9523801618906615L-34.260795853316864,-8.732697091105914" style="fill:none;stroke:rgb(0,0,0);stroke-width:1;stroke-linecap:round"></path><path d="M-86.69442231464343,-44.7026830023108L-39.37459406980454,-59.2488057989214L-94.16889664980282,-77.33792555170511z" style="fill:rgb(248,236,236); fill-opacity: 0.4"></path><path d="M-50.30689656346929,-25.73630854314722L-65.32587404871929,-21.119472453852996M-50.306894165150496,-25.73630741781414L-65.32587099934536,-21.119471528654362M-50.306894165150496,-25.73630741781414L-34.260795853316864,-8.732697091105914M-39.37459406980455,-59.2488057989214L-86.69442231464345,-44.7026830023108" style="fill:none;stroke:rgb(0,0,0);stroke-width:1;stroke-linecap:round"></path><path d="M-65.32587404871927,-1.3355451979295185L-50.30689656346928,-5.952381287223745L-50.30689656346928,-25.736308543147228z" style="fill:rgb(153,221,255); fill-opacity: 0.4"></path><path d="M-50.30689538226283,-25.736308153198202L-50.30689538226283,-5.952380897274722L-65.32587286751283,-1.3355448079804948z" style="fill:rgb(198,137,215); fill-opacity: 0.4"></path><path d="M-141.48872489464173,-62.79180275509451L-141.48872489464173,-0.45919451474713235L-86.69442231464343,-44.7026830023108zM-86.69442231464343,17.62992523803658L-39.37459406980454,3.0838024414259673L-39.37459406980454,-59.2488057989214z" style="fill:rgb(248,236,236); fill-opacity: 0.4"></path><path d="M-65.32587404871927,-21.119472453852996L-65.32587404871927,-1.3355451979295185L-50.30689656346928,-25.736308543147228z" style="fill:rgb(153,221,255); fill-opacity: 0.4"></path><path d="M-50.30689538226283,-25.736308153198202L-65.32587286751283,-1.3355448079804948L-65.32587286751283,-21.119472063903974z" style="fill:rgb(198,137,215); fill-opacity: 0.4"></path><path d="M-65.32587404871929,-21.119472453852996L-65.32587404871929,-1.3355451979295185M-65.32587099934536,-1.3355442727308877L-65.32587099934536,-21.119471528654362M-65.32587099934536,-1.3355442727308877L-34.260795853316864,-8.732697091105914" style="fill:none;stroke:rgb(0,0,0);stroke-width:1;stroke-linecap:round"></path><path d="M-50.30689538226283,-5.952380897274722L-50.30689538226283,-25.736308153198202L-34.260795114850275,-8.732696701313252zM-65.32587286751283,-1.3355448079804948L-50.30689538226283,-5.952380897274722L-34.260795114850275,-8.732696701313252z" style="fill:rgb(198,137,215); fill-opacity: 0.4"></path><path d="M-141.48872489464173,-0.45919451474713235L-86.69442231464343,17.62992523803658L-86.69442231464343,-44.7026830023108z" style="fill:rgb(248,236,236); fill-opacity: 0.4"></path><path d="M-65.32587099934536,-21.119471528654362L-34.260795853316864,-8.732697091105914" style="fill:none;stroke:rgb(0,0,0);stroke-width:1;stroke-linecap:round"></path><path d="M-50.30689538226283,-25.736308153198202L-65.32587286751283,-21.119472063903974L-34.260795114850275,-8.732696701313252zM-65.32587286751283,-21.119472063903974L-65.32587286751283,-1.3355448079804948L-34.260795114850275,-8.732696701313252z" style="fill:rgb(198,137,215); fill-opacity: 0.4"></path><path d="M-86.69442231464343,-44.7026830023108L-86.69442231464343,17.62992523803658L-39.37459406980454,-59.2488057989214z" style="fill:rgb(248,236,236); fill-opacity: 0.4"></path><path d="M47.04991083117314,23.000938872127485L-25.696693838853783,-1.0147339537711437M-25.696693838853783,-29.961100478716368L-25.696693838853783,-1.0147339537711437M-25.696693838853783,-1.0147339537711437L-47.67134131375189,5.740276206625214M-86.69442231464345,-44.7026830023108L-86.69442231464345,17.629925238036577M47.04991083117314,-5.945427652817747L-25.696693838853783,-29.961100478716368M-25.696693838853783,-29.961100478716368L-47.67134131375189,-23.206090318320015M37.01363138899371,16.43056333838176L-35.73297328103322,-7.585109487516868M-35.73297328103322,-9.383648328964457L-35.73297328103322,-7.585109487516868M-35.73297328103322,-7.585109487516868L-37.09833487060139,-7.165397115762848M37.01363138899371,14.632024496934172L-35.73297328103322,-9.383648328964457M-35.73297328103322,-9.383648328964457L-37.09833487060139,-8.963935957210436" style="fill:none;stroke:rgb(0,0,0);stroke-width:1;stroke-linecap:round"></path><path d="M-25.696693838853783,-29.961100478716368L-25.696693838853783,-1.0147339537711442L-47.67134131375189,-23.206090318320015z" style="fill:rgb(248,236,236); fill-opacity: 0.4"></path><path d="M-35.73297328103322,-9.383648328964457L-35.73297328103322,-7.585109487516868L-37.09833487060139,-8.963935957210436zM-35.73297328103322,-7.585109487516868L-37.09833487060139,-7.165397115762848L-37.09833487060139,-8.963935957210436z" style="fill:rgb(153,221,255); fill-opacity: 0.4"></path><path d="M-37.09833487060139,-8.963935957210436L-37.09833487060139,-7.165397115762848M-37.09833487060139,-7.165397115762848L35.648269799425535,16.85027571013578M-37.09833487060139,-8.963935957210436L35.648269799425535,15.05173686868819" style="fill:none;stroke:rgb(0,0,0);stroke-width:1;stroke-linecap:round"></path><path d="M-25.696693838853783,-1.0147339537711442L-47.67134131375189,5.740276206625214L-47.67134131375189,-23.206090318320015z" style="fill:rgb(248,236,236); fill-opacity: 0.4"></path><path d="M-47.67134131375189,-23.206090318320015L-47.67134131375189,5.740276206625214M-47.67134131375189,5.740276206625214L25.075263356275034,29.75594903252384" style="fill:none;stroke:rgb(0,0,0);stroke-width:1;stroke-linecap:round"></path><path d="M47.04991083117314,23.000938872127485L-25.696693838853783,-1.0147339537711442L-25.696693838853783,-29.961100478716368z" style="fill:rgb(248,236,236); fill-opacity: 0.4"></path><path d="M-47.67134131375189,-23.206090318320015L25.075263356275034,0.8095825075786123" style="fill:none;stroke:rgb(0,0,0);stroke-width:1;stroke-linecap:round"></path><path d="M-47.67134131375189,5.740276206625214L-25.696693838853783,-1.0147339537711442L47.04991083117314,23.000938872127485z" style="fill:rgb(248,236,236); fill-opacity: 0.4"></path><path d="M37.01363138899371,16.43056333838176L-35.73297328103322,-7.585109487516868L-35.73297328103322,-9.383648328964457zM-37.09833487060139,-7.165397115762848L-35.73297328103322,-7.585109487516868L37.01363138899371,16.43056333838176zM-37.09833487060139,-8.963935957210436L35.648269799425535,15.05173686868819L-35.73297328103322,-9.383648328964457zM-37.09833487060139,-8.963935957210436L-37.09833487060139,-7.165397115762848L35.648269799425535,15.05173686868819z" style="fill:rgb(153,221,255); fill-opacity: 0.4"></path><path d="M-47.67134131375189,-23.206090318320015L25.075263356275034,0.8095825075786119L-25.696693838853783,-29.961100478716368zM-47.67134131375189,-23.206090318320015L-47.67134131375189,5.740276206625214L25.075263356275034,0.8095825075786119zM47.04991083117314,-5.945427652817747L47.04991083117314,23.000938872127485L-25.696693838853783,-29.961100478716368z" style="fill:rgb(248,236,236); fill-opacity: 0.4"></path><path d="M37.01363138899371,14.632024496934172L37.01363138899371,16.43056333838176L-35.73297328103322,-9.383648328964457zM35.648269799425535,16.85027571013578L-37.09833487060139,-7.165397115762848L37.01363138899371,16.43056333838176z" style="fill:rgb(153,221,255); fill-opacity: 0.4"></path><path d="M25.075263356275034,29.75594903252384L-47.67134131375189,5.740276206625214L47.04991083117314,23.000938872127485z" style="fill:rgb(248,236,236); fill-opacity: 0.4"></path><path d="M35.648269799425535,15.05173686868819L37.01363138899371,14.632024496934172L-35.73297328103322,-9.383648328964457zM-37.09833487060139,-7.165397115762848L35.648269799425535,16.85027571013578L35.648269799425535,15.05173686868819z" style="fill:rgb(153,221,255); fill-opacity: 0.4"></path><path d="M25.075263356275034,0.8095825075786119L47.04991083117314,-5.945427652817747L-25.696693838853783,-29.961100478716368zM-47.67134131375189,5.740276206625214L25.075263356275034,29.75594903252384L25.075263356275034,0.8095825075786119z" style="fill:rgb(248,236,236); fill-opacity: 0.4"></path><path d="M47.04991083117314,-5.945427652817747L47.04991083117314,23.000938872127485M47.04991083117314,23.000938872127485L25.075263356275034,29.75594903252384M47.04991083117314,-5.945427652817747L25.075263356275034,0.8095825075786123" style="fill:none;stroke:rgb(0,0,0);stroke-width:1;stroke-linecap:round"></path><path d="M25.075263356275034,29.75594903252384L47.04991083117314,23.000938872127485L47.04991083117314,-5.945427652817747z" style="fill:rgb(248,236,236); fill-opacity: 0.4"></path><path d="M37.01362935257168,14.632023778401338L37.01362935257168,16.430562619848924M37.01362935257168,16.430562619848924L35.64826780369444,16.85027497909454M37.01362935257168,16.430562619848924L62.68143926826994,24.44017753467464M37.01363138899371,14.632024496934172L37.01363138899371,16.43056333838176M37.01363138899371,16.43056333838176L35.648269799425535,16.85027571013578M37.01362935257168,14.632023778401338L35.64826780369444,15.051736137646952M37.01362935257168,14.632023778401338L62.68143926826994,24.44017753467464M37.01363138899371,14.632024496934172L35.648269799425535,15.05173686868819" style="fill:none;stroke:rgb(0,0,0);stroke-width:1;stroke-linecap:round"></path><path d="M37.013630153917006,14.632024089201078L37.013630153917006,16.430562930648666L35.64826856434883,16.850275302402686z" style="fill:rgb(198,137,215); fill-opacity: 0.4"></path><path d="M35.648269799425535,16.85027571013578L37.01363138899371,16.43056333838176L37.01363138899371,14.632024496934172z" style="fill:rgb(153,221,255); fill-opacity: 0.4"></path><path d="M37.013630153917006,14.632024089201078L35.64826856434883,16.850275302402686L35.64826856434883,15.051736460955098z" style="fill:rgb(198,137,215); fill-opacity: 0.4"></path><path d="M35.648269799425535,15.05173686868819L35.648269799425535,16.85027571013578L37.01363138899371,14.632024496934172z" style="fill:rgb(153,221,255); fill-opacity: 0.4"></path><path d="M35.64826780369444,16.85027497909454L35.64826780369444,15.051736137646952M35.64826780369444,16.85027497909454L62.68143926826994,24.44017753467464M35.648269799425535,15.05173686868819L35.648269799425535,16.85027571013578M35.64826780369444,15.051736137646952L62.68143926826994,24.44017753467464" style="fill:none;stroke:rgb(0,0,0);stroke-width:1;stroke-linecap:round"></path><path d="M25.075263356275034,0.8095825075786119L25.075263356275034,29.75594903252384L47.04991083117314,-5.945427652817747z" style="fill:rgb(248,236,236); fill-opacity: 0.4"></path><path d="M25.075263356275034,0.8095825075786123L25.075263356275034,29.75594903252384" style="fill:none;stroke:rgb(0,0,0);stroke-width:1;stroke-linecap:round"></path><path d="M37.013630153917006,16.430562930648666L37.013630153917006,14.632024089201078L62.681440028924335,24.440177857982786zM35.64826856434883,16.850275302402686L37.013630153917006,16.430562930648666L62.681440028924335,24.440177857982786zM37.013630153917006,14.632024089201078L35.64826856434883,15.051736460955098L62.681440028924335,24.440177857982786zM35.64826856434883,15.051736460955098L35.64826856434883,16.850275302402686L62.681440028924335,24.440177857982786z" style="fill:rgb(198,137,215); fill-opacity: 0.4"></path><path d="M128.5903474451667,52.57130090915377L73.79604486516844,34.48218115637005M73.79604486516844,14.698253900446582L73.79604486516844,34.48218115637005M73.79604486516844,34.48218115637005L58.777067379918435,39.09901724566429M128.1947040270926,49.789086769308035L73.4004014470943,31.69996701652432M73.4004014470943,2.7536004915790913L73.4004014470943,31.69996701652432M73.4004014470943,31.69996701652432L51.4257539721962,38.45497717692068M128.5903474451667,32.78737365323029L73.79604486516844,14.698253900446582M73.79604486516844,14.698253900446582L58.777067379918435,19.31508998974081" style="fill:none;stroke:rgb(0,0,0);stroke-width:1;stroke-linecap:round"></path><path d="M73.79604486516844,14.698253900446582L73.79604486516844,34.48218115637006L58.77706737991844,19.31508998974081z" style="fill:rgb(153,221,255); fill-opacity: 0.4"></path><path d="M128.1947040270926,20.842720244362805L73.4004014470943,2.7536004915790913M73.4004014470943,2.7536004915790913L51.4257539721962,9.508610651975449" style="fill:none;stroke:rgb(0,0,0);stroke-width:1;stroke-linecap:round"></path><path d="M73.79604486516844,34.48218115637006L58.77706737991844,39.09901724566429L58.77706737991844,19.31508998974081z" style="fill:rgb(153,221,255); fill-opacity: 0.4"></path><path d="M58.777067379918435,19.31508998974081L58.777067379918435,39.09901724566429M58.777067379918435,39.09901724566429L113.57136995991672,57.18813699844801" style="fill:none;stroke:rgb(0,0,0);stroke-width:1;stroke-linecap:round"></path><path d="M73.4004014470943,2.7536004915790913L73.4004014470943,31.69996701652432L51.4257539721962,9.508610651975449zM73.4004014470943,31.69996701652432L51.4257539721962,38.45497717692068L51.4257539721962,9.508610651975449z" style="fill:rgb(248,236,236); fill-opacity: 0.4"></path><path d="M128.5903474451667,52.57130090915377L73.79604486516844,34.48218115637006L73.79604486516844,14.698253900446582z" style="fill:rgb(153,221,255); fill-opacity: 0.4"></path><path d="M58.777067379918435,19.31508998974081L113.57136995991672,37.40420974252453M51.4257539721962,9.508610651975449L51.4257539721962,38.45497717692068M51.4257539721962,38.45497717692068L106.22005655219449,56.544096929704395" style="fill:none;stroke:rgb(0,0,0);stroke-width:1;stroke-linecap:round"></path><path d="M58.77706737991844,39.09901724566429L73.79604486516844,34.48218115637006L128.5903474451667,52.57130090915377z" style="fill:rgb(153,221,255); fill-opacity: 0.4"></path><path d="M128.1947040270926,49.789086769308035L73.4004014470943,31.69996701652432L73.4004014470943,2.7536004915790913zM51.4257539721962,38.45497717692068L73.4004014470943,31.69996701652432L128.1947040270926,49.789086769308035z" style="fill:rgb(248,236,236); fill-opacity: 0.4"></path><path d="M51.4257539721962,9.508610651975449L106.22005655219449,27.597730404759165" style="fill:none;stroke:rgb(0,0,0);stroke-width:1;stroke-linecap:round"></path><path d="M58.77706737991844,19.31508998974081L113.57136995991674,37.40420974252453L73.79604486516844,14.698253900446582zM58.77706737991844,19.31508998974081L58.77706737991844,39.09901724566429L113.57136995991674,37.40420974252453zM128.5903474451667,32.7873736532303L128.5903474451667,52.57130090915377L73.79604486516844,14.698253900446582z" style="fill:rgb(153,221,255); fill-opacity: 0.4"></path><path d="M51.4257539721962,9.508610651975449L106.22005655219449,27.597730404759165L73.4004014470943,2.7536004915790913zM128.1947040270926,20.842720244362805L128.1947040270926,49.789086769308035L73.4004014470943,2.7536004915790913z" style="fill:rgb(248,236,236); fill-opacity: 0.4"></path><path d="M113.57136995991674,57.18813699844801L58.77706737991844,39.09901724566429L128.5903474451667,52.57130090915377z" style="fill:rgb(153,221,255); fill-opacity: 0.4"></path><path d="M51.4257539721962,9.508610651975449L51.4257539721962,38.45497717692068L106.22005655219449,27.597730404759165z" style="fill:rgb(248,236,236); fill-opacity: 0.4"></path><path d="M113.57136995991674,37.40420974252453L128.5903474451667,32.7873736532303L73.79604486516844,14.698253900446582z" style="fill:rgb(153,221,255); fill-opacity: 0.4"></path><path d="M106.22005655219449,56.544096929704395L51.4257539721962,38.45497717692068L128.1947040270926,49.789086769308035z" style="fill:rgb(248,236,236); fill-opacity: 0.4"></path><path d="M58.77706737991844,39.09901724566429L113.57136995991674,57.18813699844801L113.57136995991674,37.40420974252453z" style="fill:rgb(153,221,255); fill-opacity: 0.4"></path><path d="M106.22005655219449,27.597730404759165L128.1947040270926,20.842720244362805L73.4004014470943,2.7536004915790913z" style="fill:rgb(248,236,236); fill-opacity: 0.4"></path><path d="M128.5903474451667,32.78737365323029L128.5903474451667,52.57130090915377M128.5903474451667,52.57130090915377L113.57136995991672,57.18813699844801M128.59035071156364,32.78737457278801L128.59035071156364,52.571302257516564M128.59035071156364,52.571302257516564L113.57137290078609,57.18813844687803M128.59035071156364,52.571302257516564L151.89895551268935,60.9465755716602M128.1947040270926,20.842720244362805L128.1947040270926,49.789086769308035M128.1947040270926,49.789086769308035L106.22005655219449,56.544096929704395M128.5903474451667,32.78737365323029L113.57136995991672,37.40420974252453M128.59035071156364,32.78737457278801L113.57137290078609,37.40421076214947M128.59035071156364,32.78737457278801L151.89895551268935,60.9465755716602" style="fill:none;stroke:rgb(0,0,0);stroke-width:1;stroke-linecap:round"></path><path d="M51.4257539721962,38.45497717692068L106.22005655219449,56.544096929704395L106.22005655219449,27.597730404759165z" style="fill:rgb(248,236,236); fill-opacity: 0.4"></path><path d="M113.57136995991674,57.18813699844801L128.5903474451667,52.57130090915377L128.5903474451667,32.7873736532303z" style="fill:rgb(153,221,255); fill-opacity: 0.4"></path><path d="M128.59034862637318,32.78737404317932L128.59034862637318,52.5713012991028L113.5713711411232,57.188137388397024z" style="fill:rgb(198,137,215); fill-opacity: 0.4"></path><path d="M222.01209002426563,89.37480000376463L167.21778744426732,71.28568025098092M167.21778744426732,8.953072010633555L167.21778744426732,71.28568025098092M167.21778744426732,71.28568025098092L119.89795919942843,85.83180304759155M128.1947040270926,20.842720244362805L106.22005655219449,27.597730404759165" style="fill:none;stroke:rgb(0,0,0);stroke-width:1;stroke-linecap:round"></path><path d="M106.22005655219449,56.544096929704395L128.1947040270926,49.789086769308035L128.1947040270926,20.842720244362805z" style="fill:rgb(248,236,236); fill-opacity: 0.4"></path><path d="M128.59034862637318,52.5713012991028L128.59034862637318,32.78737404317932L151.8989538938343,60.94657508310983z" style="fill:rgb(198,137,215); fill-opacity: 0.4"></path><path d="M113.57136995991674,37.40420974252453L113.57136995991674,57.18813699844801L128.5903474451667,32.7873736532303z" style="fill:rgb(153,221,255); fill-opacity: 0.4"></path><path d="M128.59034862637318,32.78737404317932L113.5713711411232,57.188137388397024L113.5713711411232,37.404210132473544z" style="fill:rgb(198,137,215); fill-opacity: 0.4"></path><path d="M113.57136995991672,37.40420974252453L113.57136995991672,57.18813699844801M113.57137290078609,57.18813844687803L113.57137290078609,37.40421076214947M113.57137290078609,57.18813844687803L151.89895551268935,60.9465755716602" style="fill:none;stroke:rgb(0,0,0);stroke-width:1;stroke-linecap:round"></path><path d="M113.5713711411232,57.188137388397024L128.59034862637318,52.5713012991028L151.8989538938343,60.94657508310983zM128.59034862637318,32.78737404317932L113.5713711411232,37.404210132473544L151.8989538938343,60.94657508310983z" style="fill:rgb(198,137,215); fill-opacity: 0.4"></path><path d="M113.57137290078609,37.40421076214947L151.89895551268935,60.9465755716602" style="fill:none;stroke:rgb(0,0,0);stroke-width:1;stroke-linecap:round"></path><path d="M113.5713711411232,37.404210132473544L113.5713711411232,57.188137388397024L151.8989538938343,60.94657508310983z" style="fill:rgb(198,137,215); fill-opacity: 0.4"></path><path d="M106.22005655219449,27.597730404759165L106.22005655219449,56.544096929704395L128.1947040270926,20.842720244362805z" style="fill:rgb(248,236,236); fill-opacity: 0.4"></path><path d="M106.22005655219449,27.597730404759165L106.22005655219449,56.544096929704395M222.01209002426563,27.042191763417268L167.21778744426732,8.953072010633555M167.21778744426732,8.953072010633555L119.89795919942843,23.499194807244166" style="fill:none;stroke:rgb(0,0,0);stroke-width:1;stroke-linecap:round"></path><path d="M222.01209002426563,89.37480000376466L167.21778744426732,71.28568025098092L167.21778744426732,8.953072010633552zM167.21778744426732,8.953072010633552L167.21778744426732,71.28568025098092L119.8979591994284,23.499194807244166zM119.8979591994284,85.83180304759155L167.21778744426732,71.28568025098092L222.01209002426563,89.37480000376466zM167.21778744426732,71.28568025098092L119.8979591994284,85.83180304759155L119.8979591994284,23.499194807244166z" style="fill:rgb(248,236,236); fill-opacity: 0.4"></path><path d="M193.16474494625183,55.46548895768033L138.3704423662535,37.37636920489661M138.3704423662535,17.592441948973132L138.3704423662535,37.37636920489661M138.3704423662535,37.37636920489661L123.35146488100354,41.99320529419084M119.89795919942843,23.499194807244166L119.89795919942843,85.83180304759155M119.89795919942843,85.83180304759155L174.69226177942673,103.92092280037525M193.16474494625183,35.68156170175685L138.3704423662535,17.592441948973132M138.3704423662535,17.592441948973132L123.35146488100354,22.209278038267357" style="fill:none;stroke:rgb(0,0,0);stroke-width:1;stroke-linecap:round"></path><path d="M138.3704423662535,17.592441948973132L138.3704423662535,37.37636920489661L123.35146488100352,22.209278038267364z" style="fill:rgb(153,221,255); fill-opacity: 0.4"></path><path d="M222.01209002426563,27.042191763417275L222.01209002426563,89.37480000376466L167.21778744426732,8.953072010633552z" style="fill:rgb(248,236,236); fill-opacity: 0.4"></path><path d="M138.3704423662535,37.37636920489661L123.35146488100352,41.99320529419084L123.35146488100352,22.209278038267364z" style="fill:rgb(153,221,255); fill-opacity: 0.4"></path><path d="M222.01209002426563,27.042191763417268L222.01209002426563,89.37480000376463M222.01209002426563,89.37480000376463L174.69226177942673,103.92092280037525M123.35146488100354,22.209278038267357L123.35146488100354,41.99320529419084M123.35146488100354,41.99320529419084L178.14576746100184,60.082325046974546" style="fill:none;stroke:rgb(0,0,0);stroke-width:1;stroke-linecap:round"></path><path d="M193.16474494625186,55.465488957680336L138.3704423662535,37.37636920489661L138.3704423662535,17.592441948973132z" style="fill:rgb(153,221,255); fill-opacity: 0.4"></path><path d="M123.35146488100354,22.209278038267357L178.14576746100184,40.29839779105107M307.3088563970195,126.56345615645972L261.64693422971607,111.48918858966802M261.64693422971607,14.158635309325389L261.64693422971607,111.48918858966802M261.64693422971607,111.48918858966802L187.75839989401115,134.2025359025034" style="fill:none;stroke:rgb(0,0,0);stroke-width:1;stroke-linecap:round"></path><path d="M123.35146488100352,41.99320529419084L138.3704423662535,37.37636920489661L193.16474494625186,55.465488957680336z" style="fill:rgb(153,221,255); fill-opacity: 0.4"></path><path d="M119.89795919942843,23.499194807244166L174.69226177942673,41.58831456002788" style="fill:none;stroke:rgb(0,0,0);stroke-width:1;stroke-linecap:round"></path><path d="M174.69226177942673,103.92092280037527L119.8979591994284,85.83180304759155L222.01209002426563,89.37480000376466zM119.8979591994284,23.499194807244166L174.69226177942673,41.58831456002788L167.21778744426732,8.953072010633552zM174.69226177942673,41.58831456002788L222.01209002426563,27.042191763417275L167.21778744426732,8.953072010633552z" style="fill:rgb(248,236,236); fill-opacity: 0.4"></path><path d="M123.35146488100352,22.209278038267364L178.14576746100184,40.29839779105108L138.3704423662535,17.592441948973132z" style="fill:rgb(153,221,255); fill-opacity: 0.4"></path><path d="M222.01209002426563,27.042191763417268L174.69226177942673,41.58831456002788" style="fill:none;stroke:rgb(0,0,0);stroke-width:1;stroke-linecap:round"></path><path d="M119.8979591994284,23.499194807244166L119.8979591994284,85.83180304759155L174.69226177942673,41.58831456002788zM174.69226177942673,103.92092280037527L222.01209002426563,89.37480000376466L222.01209002426563,27.042191763417275z" style="fill:rgb(248,236,236); fill-opacity: 0.4"></path><path d="M123.35146488100352,22.209278038267364L123.35146488100352,41.99320529419084L178.14576746100184,40.29839779105108zM193.16474494625186,35.681561701756856L193.16474494625186,55.465488957680336L138.3704423662535,17.592441948973132zM178.14576746100184,60.08232504697455L123.35146488100352,41.99320529419084L193.16474494625186,55.465488957680336z" style="fill:rgb(153,221,255); fill-opacity: 0.4"></path><path d="M119.8979591994284,85.83180304759155L174.69226177942673,103.92092280037527L174.69226177942673,41.58831456002788zM307.30885639701955,126.56345615645971L261.6469342297161,111.48918858966799L261.64693422971607,14.15863530932538z" style="fill:rgb(248,236,236); fill-opacity: 0.4"></path><path d="M178.14576746100184,40.29839779105108L193.16474494625186,35.681561701756856L138.3704423662535,17.592441948973132zM123.35146488100352,41.99320529419084L178.14576746100184,60.08232504697455L178.14576746100184,40.29839779105108z" style="fill:rgb(153,221,255); fill-opacity: 0.4"></path><path d="M307.3088563970195,29.23290287611712L261.64693422971607,14.158635309325389M261.64693422971607,14.158635309325389L187.75839989401115,36.871982622160786M193.16474494625183,35.68156170175685L193.16474494625183,55.46548895768033M193.16474494625183,55.46548895768033L178.14576746100184,60.082325046974546M193.16474569748814,35.68156095277973L193.16474569748814,55.46548906631337M193.16474569748814,55.46548906631337L178.145767561183,60.082325355742036M193.16474569748814,55.46548906631337L204.87679605414277,46.699298413115656" style="fill:none;stroke:rgb(0,0,0);stroke-width:1;stroke-linecap:round"></path><path d="M174.69226177942673,41.58831456002788L174.69226177942673,103.92092280037527L222.01209002426563,27.042191763417275z" style="fill:rgb(248,236,236); fill-opacity: 0.4"></path><path d="M174.69226177942673,41.58831456002788L174.69226177942673,103.92092280037525" style="fill:none;stroke:rgb(0,0,0);stroke-width:1;stroke-linecap:round"></path><path d="M187.75839989401118,134.20253590250337L261.6469342297161,111.48918858966799L307.30885639701955,126.56345615645971z" style="fill:rgb(248,236,236); fill-opacity: 0.4"></path><path d="M193.16474494625183,35.68156170175685L178.14576746100184,40.29839779105107M193.16474569748814,35.68156095277973L178.145767561183,40.29839724220842M193.16474569748814,35.68156095277973L204.87679605414277,46.699298413115656" style="fill:none;stroke:rgb(0,0,0);stroke-width:1;stroke-linecap:round"></path><path d="M178.14576746100184,60.08232504697455L193.16474494625186,55.465488957680336L193.16474494625186,35.681561701756856z" style="fill:rgb(153,221,255); fill-opacity: 0.4"></path><path d="M193.1647461274583,35.68156209170587L193.1647461274583,55.46548934762936L178.14576864220828,60.082325436923576z" style="fill:rgb(198,137,215); fill-opacity: 0.4"></path><path d="M261.64693422971607,14.15863530932538L261.6469342297161,111.48918858966799L187.75839989401115,36.87198262216078z" style="fill:rgb(248,236,236); fill-opacity: 0.4"></path><path d="M307.3088563970195,29.23290287611712L307.3088563970195,126.56345615645972M307.3088563970195,126.56345615645972L233.42032206131455,149.27680346929515" style="fill:none;stroke:rgb(0,0,0);stroke-width:1;stroke-linecap:round"></path><path d="M178.14576746100184,40.29839779105108L178.14576746100184,60.08232504697455L193.16474494625186,35.681561701756856z" style="fill:rgb(153,221,255); fill-opacity: 0.4"></path><path d="M193.1647461274583,35.68156209170587L178.14576864220828,60.082325436923576L178.14576864220828,40.29839818100011z" style="fill:rgb(198,137,215); fill-opacity: 0.4"></path><path d="M178.14576746100184,40.29839779105107L178.14576746100184,60.082325046974546M178.145767561183,60.082325355742036L178.145767561183,40.29839724220842M178.145767561183,60.082325355742036L204.87679605414277,46.699298413115656" style="fill:none;stroke:rgb(0,0,0);stroke-width:1;stroke-linecap:round"></path><path d="M193.1647461274583,55.46548934762936L193.1647461274583,35.68156209170587L204.87679605267147,46.69929938057175z" style="fill:rgb(198,137,215); fill-opacity: 0.4"></path><path d="M307.30885639701955,29.2329028761171L307.30885639701955,126.56345615645971L261.64693422971607,14.15863530932538z" style="fill:rgb(248,236,236); fill-opacity: 0.4"></path><path d="M178.14576864220828,60.082325436923576L193.1647461274583,55.46548934762936L204.87679605267147,46.69929938057175z" style="fill:rgb(198,137,215); fill-opacity: 0.4"></path><path d="M178.145767561183,40.29839724220842L204.87679605414277,46.699298413115656" style="fill:none;stroke:rgb(0,0,0);stroke-width:1;stroke-linecap:round"></path><path d="M261.6469342297161,111.48918858966799L187.75839989401118,134.20253590250337L187.75839989401115,36.87198262216078z" style="fill:rgb(248,236,236); fill-opacity: 0.4"></path><path d="M265.55984490980904,84.22742608417185L219.89792274250564,69.15315851738012M219.89792274250564,49.36923126145665L219.89792274250564,69.15315851738012M219.89792274250564,69.15315851738012L204.87894525725562,73.76999460667435" style="fill:none;stroke:rgb(0,0,0);stroke-width:1;stroke-linecap:round"></path><path d="M193.1647461274583,35.68156209170587L178.14576864220828,40.29839818100011L204.87679605267147,46.69929938057175zM178.14576864220828,40.29839818100011L178.14576864220828,60.082325436923576L204.87679605267147,46.69929938057175z" style="fill:rgb(198,137,215); fill-opacity: 0.4"></path><path d="M265.55984490980904,64.44349882824837L219.89792274250564,49.36923126145665M219.89792274250564,49.36923126145665L204.87894525725562,53.98606735075087" style="fill:none;stroke:rgb(0,0,0);stroke-width:1;stroke-linecap:round"></path><path d="M219.8979227425057,49.36923126145663L219.8979227425057,69.1531585173801L204.87894525725568,53.98606735075087z" style="fill:rgb(153,221,255); fill-opacity: 0.4"></path><path d="M187.75839989401115,36.871982622160786L187.75839989401115,134.2025359025034M187.75839989401115,134.2025359025034L233.42032206131455,149.27680346929515" style="fill:none;stroke:rgb(0,0,0);stroke-width:1;stroke-linecap:round"></path><path d="M219.8979227425057,69.1531585173801L204.87894525725568,73.76999460667435L204.87894525725568,53.98606735075087z" style="fill:rgb(153,221,255); fill-opacity: 0.4"></path><path d="M204.87894525725562,53.98606735075087L204.87894525725562,73.76999460667435M204.87894525725562,73.76999460667435L250.54086742455905,88.84426217346609M348.1338329376236,140.0409137528841L333.65934624517104,135.2624840473945M333.65934624517104,37.93193076705189L333.65934624517104,135.2624840473945M333.65934624517104,135.2624840473945L259.77081190946603,157.97583136022993" style="fill:none;stroke:rgb(0,0,0);stroke-width:1;stroke-linecap:round"></path><path d="M265.55984490980904,84.22742608417184L219.8979227425057,69.1531585173801L219.8979227425057,49.36923126145663z" style="fill:rgb(153,221,255); fill-opacity: 0.4"></path><path d="M233.42032206131455,149.27680346929512L187.75839989401118,134.20253590250337L307.30885639701955,126.56345615645971z" style="fill:rgb(248,236,236); fill-opacity: 0.4"></path><path d="M204.87894525725568,73.76999460667435L219.8979227425057,69.1531585173801L265.55984490980904,84.22742608417184z" style="fill:rgb(153,221,255); fill-opacity: 0.4"></path><path d="M204.87894525725562,53.98606735075087L250.54086742455905,69.06033491754259M307.3088563970195,29.23290287611712L233.42032206131455,51.94625018895252" style="fill:none;stroke:rgb(0,0,0);stroke-width:1;stroke-linecap:round"></path><path d="M233.42032206131455,149.27680346929512L307.30885639701955,126.56345615645971L307.30885639701955,29.2329028761171z" style="fill:rgb(248,236,236); fill-opacity: 0.4"></path><path d="M348.1338329376236,42.71036047254148L348.1338329376236,140.0409137528841M348.1338329376236,140.0409137528841L274.2452986019186,162.7542610657195" style="fill:none;stroke:rgb(0,0,0);stroke-width:1;stroke-linecap:round"></path><path d="M233.42032206131455,51.946250188952504L307.30885639701955,29.2329028761171L261.64693422971607,14.15863530932538zM348.1338329376236,140.0409137528841L333.65934624517104,135.2624840473945L333.65934624517104,37.93193076705189z" style="fill:rgb(248,236,236); fill-opacity: 0.4"></path><path d="M204.87894525725568,53.98606735075087L250.54086742455908,69.06033491754258L219.8979227425057,49.36923126145663zM204.87894525725568,53.98606735075087L204.87894525725568,73.76999460667435L250.54086742455908,69.06033491754258zM265.55984490980904,64.44349882824835L265.55984490980904,84.22742608417184L219.8979227425057,49.36923126145663z" style="fill:rgb(153,221,255); fill-opacity: 0.4"></path><path d="M187.75839989401115,36.87198262216078L233.42032206131455,51.946250188952504L261.64693422971607,14.15863530932538z" style="fill:rgb(248,236,236); fill-opacity: 0.4"></path><path d="M250.54086742455908,88.84426217346606L204.87894525725568,73.76999460667435L265.55984490980904,84.22742608417184zM250.54086742455908,69.06033491754258L265.55984490980904,64.44349882824835L219.8979227425057,49.36923126145663z" style="fill:rgb(153,221,255); fill-opacity: 0.4"></path><path d="M259.7708119094661,157.97583136022993L333.65934624517104,135.2624840473945L348.1338329376236,140.0409137528841z" style="fill:rgb(248,236,236); fill-opacity: 0.4"></path><path d="M187.75839989401115,36.871982622160786L233.42032206131455,51.94625018895252M265.55984490980904,64.44349882824837L265.55984490980904,84.22742608417185M265.55984490980904,84.22742608417185L250.54086742455905,88.84426217346609M265.5598501911991,64.44349985163157L265.5598501911991,84.2274279651652M265.5598501911991,84.2274279651652L250.54087303147665,88.8442639543922M265.5598501911991,84.2274279651652L284.400852443893,85.34290958635411" style="fill:none;stroke:rgb(0,0,0);stroke-width:1;stroke-linecap:round"></path><path d="M348.1338329376236,42.71036047254148L348.1338329376236,140.0409137528841L333.65934624517104,37.93193076705189z" style="fill:rgb(248,236,236); fill-opacity: 0.4"></path><path d="M204.87894525725568,73.76999460667435L250.54086742455908,88.84426217346606L250.54086742455908,69.06033491754258z" style="fill:rgb(153,221,255); fill-opacity: 0.4"></path><path d="M348.1338329376236,42.71036047254148L333.65934624517104,37.93193076705189M333.65934624517104,37.93193076705189L259.77081190946603,60.645278079887284" style="fill:none;stroke:rgb(0,0,0);stroke-width:1;stroke-linecap:round"></path><path d="M187.75839989401115,36.87198262216078L187.75839989401118,134.20253590250337L233.42032206131455,51.946250188952504z" style="fill:rgb(248,236,236); fill-opacity: 0.4"></path><path d="M265.55984490980904,64.44349882824837L250.54086742455905,69.06033491754259M265.5598501911991,64.44349985163157L250.54087303147665,69.06033584085857M265.5598501911991,64.44349985163157L284.400852443893,85.34290958635411" style="fill:none;stroke:rgb(0,0,0);stroke-width:1;stroke-linecap:round"></path><path d="M265.55984421882863,64.44349860013656L265.55984421882863,84.22742585606005L250.54086673357867,88.84426194535429z" style="fill:rgb(198,137,215); fill-opacity: 0.4"></path><path d="M250.54086742455908,88.84426217346606L265.55984490980904,84.22742608417184L265.55984490980904,64.44349882824835z" style="fill:rgb(153,221,255); fill-opacity: 0.4"></path><path d="M187.75839989401118,134.20253590250337L233.42032206131455,149.27680346929512L233.42032206131455,51.946250188952504zM233.42032206131455,51.946250188952504L233.42032206131455,149.27680346929512L307.30885639701955,29.2329028761171z" style="fill:rgb(248,236,236); fill-opacity: 0.4"></path><path d="M233.42032206131455,51.94625018895252L233.42032206131455,149.27680346929515" style="fill:none;stroke:rgb(0,0,0);stroke-width:1;stroke-linecap:round"></path><path d="M333.65934624517104,37.93193076705189L333.65934624517104,135.2624840473945L259.77081190946603,60.645278079887284z" style="fill:rgb(248,236,236); fill-opacity: 0.4"></path><path d="M265.55984421882863,64.44349860013656L250.54086673357867,88.84426194535429L250.54086673357867,69.06033468943079z" style="fill:rgb(198,137,215); fill-opacity: 0.4"></path><path d="M250.54086742455908,69.06033491754258L250.54086742455908,88.84426217346606L265.55984490980904,64.44349882824835z" style="fill:rgb(153,221,255); fill-opacity: 0.4"></path><path d="M250.54086742455905,69.06033491754259L250.54086742455905,88.84426217346609M250.54087303147665,88.8442639543922L250.54087303147665,69.06033584085857M250.54087303147665,88.8442639543922L284.400852443893,85.34290958635411" style="fill:none;stroke:rgb(0,0,0);stroke-width:1;stroke-linecap:round"></path><path d="M265.55984421882863,84.22742585606005L265.55984421882863,64.44349860013656L284.4008461459951,85.34290843492633z" style="fill:rgb(198,137,215); fill-opacity: 0.4"></path><path d="M348.1338329376236,42.71036047254148L274.2452986019186,65.42370778537688" style="fill:none;stroke:rgb(0,0,0);stroke-width:1;stroke-linecap:round"></path><path d="M250.54086673357867,88.84426194535429L265.55984421882863,84.22742585606005L284.4008461459951,85.34290843492633z" style="fill:rgb(198,137,215); fill-opacity: 0.4"></path><path d="M274.2452986019186,162.7542610657195L348.1338329376236,140.0409137528841L348.1338329376236,42.71036047254148z" style="fill:rgb(248,236,236); fill-opacity: 0.4"></path><path d="M250.54087303147665,69.06033584085857L284.400852443893,85.34290958635411" style="fill:none;stroke:rgb(0,0,0);stroke-width:1;stroke-linecap:round"></path><path d="M265.55984421882863,64.44349860013656L250.54086673357867,69.06033468943079L284.4008461459951,85.34290843492633zM250.54086673357867,69.06033468943079L250.54086673357867,88.84426194535429L284.4008461459951,85.34290843492633z" style="fill:rgb(198,137,215); fill-opacity: 0.4"></path><path d="M274.2452986019186,162.7542610657195L259.7708119094661,157.97583136022993L348.1338329376236,140.0409137528841zM333.65934624517104,135.2624840473945L259.7708119094661,157.97583136022993L259.77081190946603,60.645278079887284zM274.2452986019186,65.42370778537688L348.1338329376236,42.71036047254148L333.65934624517104,37.93193076705189z" style="fill:rgb(248,236,236); fill-opacity: 0.4"></path><path d="M259.77081190946603,60.645278079887284L259.77081190946603,157.97583136022993M259.77081190946603,157.97583136022993L274.2452986019186,162.7542610657195" style="fill:none;stroke:rgb(0,0,0);stroke-width:1;stroke-linecap:round"></path><path d="M274.2452986019186,65.42370778537688L274.2452986019186,162.7542610657195L348.1338329376236,42.71036047254148z" style="fill:rgb(248,236,236); fill-opacity: 0.4"></path><path d="M274.2452986019186,65.42370778537688L274.2452986019186,162.7542610657195" style="fill:none;stroke:rgb(0,0,0);stroke-width:1;stroke-linecap:round"></path><path d="M259.77081190946603,60.645278079887284L274.2452986019186,65.42370778537688L333.65934624517104,37.93193076705189zM259.7708119094661,157.97583136022993L274.2452986019186,162.7542610657195L274.2452986019186,65.42370778537688zM259.77081190946603,60.645278079887284L259.7708119094661,157.97583136022993L274.2452986019186,65.42370778537688z" style="fill:rgb(248,236,236); fill-opacity: 0.4"></path><path d="M259.77081190946603,60.645278079887284L274.2452986019186,65.42370778537688" style="fill:none;stroke:rgb(0,0,0);stroke-width:1;stroke-linecap:round"></path></svg>